<?xml version="1.0" encoding="utf-8"?>
<!-- Generator: Adobe Illustrator 26.0.3, SVG Export Plug-In . SVG Version: 6.00 Build 0)  -->
<svg version="1.1" id="Calque_1" xmlns="http://www.w3.org/2000/svg" xmlns:xlink="http://www.w3.org/1999/xlink" x="0px" y="0px"
	 viewBox="0 0 425.2 425.2" style="enable-background:new 0 0 425.2 425.2;" xml:space="preserve">
<style type="text/css">
	.st0{fill:none;}
	.st1{fill:#747A7E;}
	.st2{fill:#0AAEE1;}
	.st3{fill:#0481BF;}
</style>
<g>
	<path class="st0" d="M239.7,121.3c0.8,2.5,1.5,5.8,2,9.8c0.8,5.8,2.6,13.3,5.6,22l-0.1-0.2l-2,3.7l-14.9-14.9l-5.3,11.7l-9.2-7
		l-0.1,0.4c0.6-2.3,1.2-4.6,1.8-7c3-8.9,6.6-16.9,10.1-21.6c-1.2-0.2-2.5-0.4-3.7-0.6c-24.9-3.5-51.1,1.5-71.9,16.1
		c-23,16.2-35.4,39.2-35,67.6c0.2,13.8,3.3,27.2,8.6,39.6c11.3-16.8,21.7-36.9,27.9-60.2l0,0.1l4.6,6.7l11.7-13.8l9.6,6.4l7.3-3
		l-0.1-0.2c3.9,7.1,8.3,14.6,13,22.1c2.4-6.4,4.7-13.2,7.1-20.6l-0.1,0.5l17.5,5.4l9.6-10.6l17,15.9l6-14l-0.1-0.2
		c10,20.7,25.6,45.1,48.9,69.8c2.6-9.1,3.9-18.4,4-28C308.8,174,280.4,134.3,239.7,121.3z M176.9,158.3l-0.6,0.5l-9.6-10.6
		l-7.4,14.9l-1.6-1.4l-0.1,0.6c0.8-5.1,1.5-10.4,1.8-15.8c0-16.5,7.7-9.9,9.9-4.4C169.8,143.5,172.5,149.6,176.9,158.3L176.9,158.3z
		"/>
	<path class="st0" d="M146.9,297.7c-9.5-7.5-17.3-16.4-23.4-26.1c-12.1,6-22,11-29.9,15c18.6,32.6,52.7,63.9,114.8,63.9
		c61.7,0,95.7-33.4,113.2-60.8c-12.8-3.8-23.7-7.1-33-9.8c-2.3,2.8-4.7,5.4-7.2,8C245.8,323.3,187.1,329.6,146.9,297.7z"/>
	<path class="st0" d="M139.3,263.9c15.3,19.5,37.4,33.4,63.2,37c24.9,3.4,51.1-1.5,71.9-16.1c2.9-2,5.8-4.2,8.6-6.5
		c-21.9-6.4-33.5-9.9-38-12c-54.9-25.3-90.1,17.6-85.7,8.8c0,0,7.8-8.3,18.5-27.7c-6.1,1.6-12.3,3.8-18.5,6.8
		C152.2,257.6,145.6,260.8,139.3,263.9z"/>
	<path class="st1" d="M202.6,300.9c-25.8-3.6-47.9-17.5-63.2-37c-5.7,2.8-10.9,5.4-15.9,7.8c6.1,9.7,13.9,18.6,23.4,26.1
		c40.2,31.9,99,25.6,134.5-9.9c2.5-2.5,4.9-5.2,7.2-8c-1.9-0.6-3.8-1.1-5.6-1.6c-2.8,2.3-5.7,4.5-8.6,6.5
		C253.6,299.4,227.5,304.3,202.6,300.9z"/>
	<path class="st1" d="M117,201.4c-0.4-28.4,12-51.4,35-67.6c20.8-14.6,47-19.6,71.9-16.1c1.3,0.2,2.5,0.4,3.7,0.6
		c4.5-6.1,9-6.8,12,3c40.7,13,69.1,52.7,69.8,95.9c-0.1,9.6-1.5,18.9-4,28c1,1,1.9,2,2.9,3.1c6.7-14.9,10.6-31,10.8-46.8
		c-0.8-51.1-37.9-93.7-88.7-100.7c-50.4-7-90,25.9-111.4,68.3c-14,27.8-14.9,59.2-4,86.4c3.5-4.5,7.1-9.3,10.5-14.4
		C120.3,228.6,117.2,215.2,117,201.4z"/>
	<path class="st2" d="M213.3,75.2c131.8,0,139.5,138.3,139.5,138.3H411c0-27.3-43.1-166.9-171.5-166.9C106.7,46.6,81.4,173,81.4,173
		S106.7,75.2,213.3,75.2z"/>
	<path class="st2" d="M159.3,146.5c-0.4,5.4-1,10.6-1.8,15.8l0.1-0.6l1.6,1.4l7.4-14.9l9.6,10.6l0.6-0.5l0,0
		c-4.4-8.7-7.1-14.9-7.7-16.2C167,136.6,159.3,130,159.3,146.5z"/>
	<path class="st2" d="M93.6,286.6c7.8-4,17.8-9,29.9-15c4.9-2.4,10.2-5,15.9-7.8c6.2-3,12.9-6.3,20-9.7c6.2-3,12.4-5.2,18.5-6.8
		c6.5-11.8,14.1-27.7,21.8-48.3c-4.7-7.5-9.1-15.1-13-22.1l0.1,0.2l-7.3,3l-9.6-6.4l-11.7,13.8l-4.6-6.7l0-0.1
		c-6.3,23.3-16.6,43.5-27.9,60.2c-3.5,5.1-7,9.9-10.5,14.4c-8.5,10.8-17,19.6-24.2,26.4c-11.3,10.7-19.5,16.3-19.5,16.3
		S78.7,294.2,93.6,286.6z"/>
	<path class="st3" d="M389,310.2c-18.1-10.4-34.2-21.5-48.4-32.8c-2.6-2.1-5.1-4.1-7.6-6.2c3.6-10.1,4.9-16.7,4.9-16.7
		s-1.5,5.9-5.4,14.8c-0.2,0.4-0.3,0.7-0.5,1.1c-8.6-7.3-16.5-14.7-23.7-22.1c-1-1-2-2-2.9-3.1c-23.3-24.7-38.9-49.1-48.9-69.8
		l0.1,0.2l-6,14l-17-15.9l-9.6,10.6l-17.5-5.4l0.1-0.5c-2.3,7.3-4.7,14.2-7.1,20.6c-7.6,20.6-15.3,36.5-21.8,48.3
		c-10.8,19.4-18.5,27.7-18.5,27.7c-4.4,8.8,30.8-34.1,85.7-8.8c4.5,2.1,16.2,5.5,38,12c1.8,0.5,3.6,1.1,5.6,1.6
		c9.3,2.7,20.2,6,33,9.8c-17.5,27.4-51.4,60.8-113.2,60.8c-62.2,0-96.2-31.3-114.8-63.9c-14.9,7.6-22.2,11.5-22.2,11.5
		s8.2-5.6,19.5-16.3c-17.7-33.7-19.6-67.1-19.6-67.1H14.2c0,26.8,42.4,163.9,168.5,163.9c83.9,0,124.1-51.3,142.1-87.9
		c2.3,0.7,4.7,1.4,7.1,2.1c6.3,1.9,13.1,3.9,20.2,6.1C363.3,302.3,375.6,306.1,389,310.2z"/>
	<path class="st3" d="M215.8,146.9l0.1-0.4l9.2,7l5.3-11.7l14.9,14.9l2-3.7l0.1,0.2c-3-8.8-4.8-16.3-5.6-22c-0.6-4.1-1.2-7.3-2-9.8
		c-3-9.8-7.5-9.1-12-3c-3.6,4.8-7.2,12.8-10.1,21.6C217,142.3,216.4,144.6,215.8,146.9z"/>
</g>
</svg>
