<?xml version="1.0" encoding="utf-8"?>
<!-- Generator: Adobe Illustrator 26.0.3, SVG Export Plug-In . SVG Version: 6.00 Build 0)  -->
<svg version="1.1" id="Calque_1" xmlns="http://www.w3.org/2000/svg" xmlns:xlink="http://www.w3.org/1999/xlink" x="0px" y="0px"
	 viewBox="0 0 850.4 368.5" style="enable-background:new 0 0 850.4 368.5;" xml:space="preserve">
<style type="text/css">
	.st0{fill:none;}
	.st1{fill:#737A7E;}
	.st2{fill:#0180B7;}
	.st3{fill:#03ADE0;}
	.st4{fill:#0080BE;}
</style>
<g>
	<path class="st0" d="M161.5,261.2c-8.6-6.8-15.7-14.9-21.3-23.7c-11,5.4-20,10-27.1,13.6c16.9,29.6,47.9,58,104.3,58
		c56.1,0,86.9-30.3,102.8-55.2c-11.6-3.5-21.5-6.4-30-8.9c-2.1,2.5-4.3,4.9-6.6,7.2C251.4,284.5,198,290.2,161.5,261.2z"/>
	<path class="st0" d="M347.9,262.2C347.9,262.3,347.9,262.3,347.9,262.2c7.5,7.5,16.5,11.3,27,11.3c10.5,0,19.5-3.7,26.9-11.2
		c7.4-7.4,11.1-16.4,11.1-26.9c0-10.5-3.7-19.5-11.1-26.9c-7.4-7.4-16.4-11.1-26.9-11.1c-10.5,0-19.5,3.7-26.9,11.1
		c-7.4,7.4-11.1,16.4-11.1,26.9c0,2.5,0.2,5,0.7,7.3c12.9,10.3,27.4,20.3,43.9,29.8C369.2,268.8,358.1,265.3,347.9,262.2z"/>
	<path class="st0" d="M154.6,230.4c13.9,17.7,34,30.4,57.4,33.6c22.7,3.1,46.4-1.4,65.3-14.6c2.6-1.8,5.2-3.8,7.8-5.9
		c-19.9-5.9-30.4-9-34.5-10.9c-49.9-23-81.8,16-77.9,8c0,0,7.1-7.5,16.8-25.2c-5.5,1.5-11.2,3.5-16.8,6.2
		C166.3,224.7,160.3,227.7,154.6,230.4z"/>
	<path class="st0" d="M779.9,218.6c-3.3,0-5.8,1.9-7.4,5.9c-1.6,3.9-2.5,9.8-2.5,17.6c0,8.2,0.8,14.4,2.4,18.6
		c1.6,4.1,4.1,6.2,7.3,6.2c3.2,0,5.6-2,7.2-6c1.6-4,2.4-10,2.4-18c0-8.1-0.8-14.1-2.3-18.2C785.4,220.6,783,218.6,779.9,218.6z"/>
	<path class="st0" d="M245.8,100.9c0.7,2.3,1.3,5.3,1.8,8.9c0.7,5.2,2.3,12,5.1,20l-0.1-0.1l-1.8,3.4l-13.5-13.5l-4.8,10.6l-8.4-6.4
		l-0.1,0.4c0.5-2.1,1.1-4.2,1.6-6.4c2.7-8,6-15.3,9.2-19.7c-1.1-0.2-2.3-0.4-3.4-0.6c-22.7-3.1-46.4,1.3-65.3,14.6
		c-20.9,14.7-32.2,35.6-31.8,61.4c0.2,12.5,3,24.8,7.9,36c10.3-15.2,19.7-33.5,25.4-54.7l0,0.1l4.2,6.1l10.6-12.5l8.7,5.8l6.6-2.7
		l-0.1-0.1c3.5,6.4,7.5,13.3,11.8,20.1c2.2-5.8,4.3-12,6.4-18.7l-0.1,0.4l15.9,4.9l8.7-9.7l15.4,14.5l5.5-12.8l-0.1-0.2
		c9.1,18.8,23.3,41,44.4,63.4c2.4-8.3,3.5-16.7,3.7-25.4C308.6,148.8,282.8,112.7,245.8,100.9z M188.7,134.5l-0.6,0.5l-8.7-9.6
		l-6.8,13.5l-1.5-1.3l-0.1,0.6c0.7-4.7,1.3-9.4,1.7-14.3c0-15,7-9,9-4C182.2,121.1,184.8,126.6,188.7,134.5L188.7,134.5z"/>
	<path class="st0" d="M714.4,218.6c-3.3,0-5.8,1.9-7.4,5.9c-1.6,3.9-2.5,9.8-2.5,17.6c0,8.2,0.8,14.4,2.4,18.6
		c1.6,4.1,4.1,6.2,7.3,6.2c3.2,0,5.6-2,7.2-6c1.6-4,2.4-10,2.4-18c0-8.1-0.8-14.1-2.3-18.2C719.9,220.6,717.6,218.6,714.4,218.6z"/>
	<path class="st1" d="M374.9,190.6c-12.4,0-22.9,4.4-31.6,13.1c-8.7,8.7-13.1,19.2-13.1,31.5c3.5-8,4.9-13.4,4.9-13.4
		s-1.2,6-4.5,15.2c2.2,1.9,4.6,3.8,6.9,5.7c-0.4-2.4-0.7-4.8-0.7-7.3c0-10.5,3.7-19.5,11.1-26.9c7.4-7.4,16.4-11.1,26.9-11.1
		c10.5,0,19.5,3.7,26.9,11.1c7.4,7.4,11.1,16.4,11.1,26.9c0,10.5-3.7,19.5-11.1,26.9c-7.4,7.4-16.4,11.2-26.9,11.2
		c-10.5,0-19.5-3.7-26.9-11.2c0,0-0.1-0.1-0.1-0.1c-6.5-2-12.6-3.8-18.4-5.6v78.7h8.8v-74.2c0,0.1,0.1,0.1,0.1,0.2
		c1.4,2,3,3.9,4.8,5.7c2.2,2.2,4.5,4.1,6.9,5.7c7.2,4.9,15.5,7.4,24.7,7.4c12.4,0,22.9-4.4,31.6-13.1c8.7-8.7,13.1-19.3,13.1-31.6
		c0-12.4-4.4-22.9-13.1-31.6C397.8,195,387.2,190.6,374.9,190.6z"/>
	<polygon class="st1" points="447.2,202.8 442.3,202.8 442.3,225.6 431.4,225.6 431.4,230.5 442.3,230.5 442.3,279.1 447.2,279.1 
		447.2,230.5 458.1,230.5 458.1,225.6 447.2,225.6 	"/>
	<path class="st1" d="M474.7,206.6c-1.4,0-2.5,0.5-3.5,1.4c-1,1-1.4,2.1-1.4,3.4c0,1.4,0.5,2.6,1.4,3.5c1,1,2.1,1.4,3.5,1.4
		c1.4,0,2.5-0.5,3.5-1.4c1-1,1.4-2.1,1.4-3.5c0-1.4-0.5-2.5-1.4-3.4C477.2,207.1,476,206.6,474.7,206.6z"/>
	<rect x="472.2" y="225.6" class="st1" width="4.9" height="53.5"/>
	<path class="st1" d="M521.2,226c6.8,0,12.7,2.4,17.5,7.2c0.6,0.7,1.2,1.3,1.7,2l5.2-1.9c-1-1.3-2-2.5-3.2-3.7
		c-5.9-5.9-12.9-8.8-21.2-8.8c-8.3,0-15.3,2.9-21.1,8.8c-5.9,5.9-8.8,12.9-8.8,21.1c0,8.3,2.9,15.4,8.8,21.2
		c5.9,5.9,12.9,8.8,21.1,8.8c8.3,0,15.4-2.9,21.2-8.8c1.2-1.2,2.3-2.5,3.2-3.8l-5.2-1.9c-0.5,0.7-1.1,1.3-1.7,1.9
		c-4.9,4.9-10.7,7.2-17.5,7.2c-6.8,0-12.6-2.4-17.4-7.2c-4.9-4.9-7.2-10.7-7.2-17.5c0-6.8,2.4-12.7,7.2-17.5
		C508.6,228.3,514.4,226,521.2,226z"/>
	<path class="st2" d="M578.6,258.8c1.4-1.8,4.7-4.7,10.1-8.6c7.5-5.5,12.6-9.8,15.3-13.2c2.7-3.3,4-7.3,4-12
		c0-5.9-2.4-10.7-7.2-14.4c-4.8-3.7-11.2-5.6-19.1-5.6c-6.1,0-13,1.4-20.6,4.1v16c6-3.9,11.3-5.8,15.9-5.8c3.1,0,5.7,0.7,7.6,2.2
		c1.9,1.5,2.9,3.3,2.9,5.4c0,1.6-0.6,3.2-1.8,4.7c-1.3,1.5-3.9,3.8-8,6.8c-8.7,6.3-14.2,11.4-16.7,15.3c-2.5,3.9-3.8,9.4-3.8,16.4
		v8.7h52.3v-13.8h-33.1C576.5,262.8,577.3,260.6,578.6,258.8z"/>
	<path class="st2" d="M656.3,240.2c4.8-1.9,8.3-4.3,10.7-7.1c2.4-2.8,3.5-6.1,3.5-9.8c0-3.8-1.3-7.1-3.7-10
		c-2.5-2.8-5.7-4.9-9.6-6.2c-3.9-1.3-8-2-12.3-2c-7,0-13.6,1.4-20.1,4.3V225c5.8-3.8,10.9-5.6,15.2-5.6c2.9,0,5.4,0.7,7.3,2.2
		c1.9,1.4,2.9,3.3,2.9,5.5c0,2.4-1.1,4.3-3.3,5.6c-2.2,1.3-5,2-8.3,2H633v12.6h8.8c3.6,0,6.6,0.8,9,2.5c2.3,1.7,3.5,3.8,3.5,6.4
		c0,2.7-1.2,5-3.6,7c-2.4,1.9-5.3,2.9-8.7,2.9c-5.6,0-11.3-1.8-17-5.4v16c7,2.6,13.7,3.9,19.9,3.9c8.8,0,16-2.2,21.5-6.4
		c5.5-4.3,8.3-9.7,8.3-16.3c0-4.9-1.5-8.8-4.6-11.7C667,243,662.4,241.1,656.3,240.2z"/>
	<path class="st2" d="M714.1,205.1c-8.7,0-15.8,3.4-21.3,10.1c-5.5,6.8-8.3,15.7-8.3,26.9c0,6.7,1,13,3,18.8
		c2,5.9,5.4,10.5,10.2,14.1c4.8,3.5,10.4,5.3,16.9,5.3c8.8,0,16-3.3,21.4-9.9c5.5-6.6,8.1-15.5,8.1-26.6c0-12.7-2.7-22.3-8.2-28.9
		C730.4,208.4,723.1,205.1,714.1,205.1z M721.5,260.8c-1.6,4-4,6-7.2,6c-3.3,0-5.7-2.1-7.3-6.2c-1.6-4.1-2.4-10.3-2.4-18.6
		c0-7.8,0.8-13.7,2.5-17.6c1.7-3.9,4.1-5.9,7.4-5.9c3.2,0,5.5,2,7.1,6.1c1.6,4,2.3,10.1,2.3,18.2C723.8,250.8,723,256.8,721.5,260.8
		z"/>
	<path class="st2" d="M801.3,215c-5.5-6.6-12.7-9.8-21.8-9.8c-8.7,0-15.8,3.4-21.3,10.1c-5.5,6.8-8.3,15.7-8.3,26.9
		c0,6.7,1,13,3,18.8c2,5.9,5.4,10.5,10.2,14.1c4.8,3.5,10.4,5.3,16.9,5.3c8.8,0,16-3.3,21.4-9.9c5.5-6.6,8.2-15.5,8.2-26.6
		C809.5,231.1,806.8,221.5,801.3,215z M786.9,260.8c-1.6,4-4,6-7.2,6c-3.3,0-5.7-2.1-7.3-6.2c-1.6-4.1-2.4-10.3-2.4-18.6
		c0-7.8,0.8-13.7,2.5-17.6c1.7-3.9,4.1-5.9,7.4-5.9c3.2,0,5.5,2,7.1,6.1c1.6,4,2.3,10.1,2.3,18.2
		C789.3,250.8,788.5,256.8,786.9,260.8z"/>
	<path class="st1" d="M212,264c-23.4-3.2-43.5-15.9-57.4-33.6c-5.1,2.5-9.9,4.9-14.4,7.1c5.5,8.8,12.6,16.9,21.3,23.7
		c36.6,29,89.9,23.3,122.2-9c2.3-2.3,4.5-4.7,6.6-7.2c-1.8-0.5-3.4-1-5.1-1.5c-2.5,2.1-5.2,4.1-7.8,5.9
		C258.4,262.7,234.7,267.2,212,264z"/>
	<path class="st1" d="M134.3,173.7c-0.4-25.8,10.9-46.7,31.8-61.4c18.9-13.3,42.7-17.8,65.3-14.6c1.1,0.2,2.3,0.4,3.4,0.6
		c4.1-5.5,8.2-6.2,10.9,2.7c37,11.8,62.8,47.9,63.4,87.1c-0.1,8.7-1.3,17.2-3.7,25.4c0.9,0.9,1.8,1.9,2.7,2.8
		c6-13.6,9.6-28.2,9.8-42.5c-0.7-46.4-34.4-85.2-80.6-91.5c-45.7-6.3-81.8,23.5-101.2,62.1c-12.7,25.3-13.5,53.8-3.6,78.5
		c3.2-4.1,6.4-8.4,9.6-13.1C137.3,198.4,134.5,186.2,134.3,173.7z"/>
	<path class="st3" d="M221.8,59c119.8,0,126.8,125.6,126.8,125.6h52.9c0-24.8-39.2-151.6-155.8-151.6
		C124.9,33.1,102,147.9,102,147.9S124.9,59,221.8,59z"/>
	<path class="st3" d="M172.8,123.8c-0.3,4.9-0.9,9.7-1.7,14.3l0.1-0.6l1.5,1.3l6.8-13.5l8.7,9.6l0.6-0.5l0,0c-4-7.9-6.5-13.5-7-14.8
		C179.8,114.8,172.8,108.8,172.8,123.8z"/>
	<path class="st3" d="M113.1,251.1c7.1-3.6,16.2-8.2,27.1-13.6c4.5-2.2,9.3-4.6,14.4-7.1c5.7-2.8,11.7-5.7,18.2-8.8
		c5.6-2.7,11.3-4.7,16.8-6.2c5.9-10.7,12.8-25.1,19.8-43.9c-4.3-6.8-8.3-13.7-11.8-20.1l0.1,0.1l-6.6,2.7l-8.7-5.8l-10.6,12.5
		l-4.2-6.1l0-0.1c-5.7,21.2-15.1,39.5-25.4,54.7c-3.1,4.7-6.3,9-9.6,13.1c-7.7,9.8-15.4,17.8-22,24c-10.3,9.7-17.7,14.8-17.7,14.8
		S99.6,258,113.1,251.1z"/>
	<path class="st4" d="M381.4,272.5c-16.5-9.5-31-19.5-43.9-29.8c-2.4-1.9-4.7-3.8-6.9-5.7c3.3-9.2,4.5-15.2,4.5-15.2
		s-1.4,5.4-4.9,13.4c-0.1,0.3-0.3,0.7-0.5,1c-7.8-6.7-15-13.4-21.5-20.1c-0.9-0.9-1.8-1.9-2.7-2.8c-21.2-22.4-35.4-44.6-44.4-63.4
		l0.1,0.2l-5.5,12.8l-15.4-14.5l-8.7,9.7l-15.9-4.9l0.1-0.4c-2.1,6.7-4.3,12.9-6.4,18.7c-6.9,18.7-13.9,33.2-19.8,43.9
		c-9.8,17.6-16.8,25.2-16.8,25.2c-4,8,28-30.9,77.9-8c4.1,1.9,14.7,5,34.5,10.9c1.6,0.5,3.3,1,5.1,1.5c8.5,2.5,18.4,5.4,30,8.9
		c-15.9,24.9-46.7,55.2-102.8,55.2c-56.5,0-87.4-28.4-104.3-58c-13.5,6.9-20.1,10.4-20.1,10.4s7.4-5.1,17.7-14.8
		c-16.1-30.6-17.8-61-17.8-61h-52c0,24.4,38.5,148.9,153.1,148.9c76.2,0,112.7-46.6,129.1-79.9c2.1,0.6,4.2,1.3,6.4,1.9
		c5.7,1.7,11.9,3.6,18.4,5.6C358.1,265.3,369.2,268.8,381.4,272.5z"/>
	<path class="st4" d="M224.1,124.2l0.1-0.4l8.4,6.4l4.8-10.6l13.5,13.5l1.8-3.4l0.1,0.1c-2.7-8-4.3-14.8-5.1-20
		c-0.5-3.7-1.1-6.6-1.8-8.9c-2.7-8.9-6.8-8.2-10.9-2.7c-3.2,4.3-6.5,11.6-9.2,19.7C225.1,120,224.6,122.1,224.1,124.2z"/>
</g>
</svg>
