<?xml version="1.0" encoding="utf-8"?>
<!-- Generator: Adobe Illustrator 26.0.3, SVG Export Plug-In . SVG Version: 6.00 Build 0)  -->
<svg version="1.1" id="Calque_1" xmlns="http://www.w3.org/2000/svg" xmlns:xlink="http://www.w3.org/1999/xlink" x="0px" y="0px"
	 viewBox="0 0 850.4 368.5" style="enable-background:new 0 0 850.4 368.5;" xml:space="preserve">
<g>
	<path d="M374.9,190.6c-12.4,0-22.9,4.4-31.6,13.1c-8.7,8.7-13.1,19.2-13.1,31.5c-0.1,0.3-0.3,0.7-0.5,1c-7.8-6.7-15-13.4-21.5-20.1
		c6-13.6,9.6-28.2,9.8-42.5c-0.7-46.4-34.4-85.2-80.6-91.5c-45.7-6.3-81.8,23.5-101.2,62.1c-12.7,25.3-13.5,53.8-3.6,78.5
		c-7.7,9.8-15.4,17.8-22,24c-16.1-30.6-17.8-61-17.8-61h-52c0,24.4,38.5,148.9,153.1,148.9c76.2,0,112.7-46.6,129.1-79.9
		c2.1,0.6,4.2,1.3,6.4,1.9v78.7h8.8v-74.2c0,0.1,0.1,0.1,0.1,0.2c1.4,2,3,3.9,4.8,5.7c2.2,2.2,4.5,4.1,6.9,5.7
		c7.2,4.9,15.5,7.4,24.7,7.4c12.4,0,22.9-4.4,31.6-13.1c8.7-8.7,13.1-19.3,13.1-31.6c0-12.4-4.4-22.9-13.1-31.6
		C397.8,195,387.2,190.6,374.9,190.6z M166.1,112.3c18.9-13.3,42.7-17.8,65.3-14.6c1.1,0.2,2.3,0.4,3.4,0.6
		c-3.2,4.3-6.5,11.6-9.2,19.7c-0.5,2.2-1.1,4.3-1.6,6.4l0.1-0.4l8.4,6.4l4.8-10.6l13.5,13.5l1.8-3.4l0.1,0.1c-2.7-8-4.3-14.8-5.1-20
		c-0.5-3.7-1.1-6.6-1.8-8.9c37,11.8,62.8,47.9,63.4,87.1c-0.1,8.7-1.3,17.2-3.7,25.4c-21.2-22.4-35.4-44.6-44.4-63.4l0.1,0.2
		l-5.5,12.8l-15.4-14.5l-8.7,9.7l-15.9-4.9l0.1-0.4c-2.1,6.7-4.3,12.9-6.4,18.7c-4.3-6.8-8.3-13.7-11.8-20.1l0.1,0.1l-6.6,2.7
		l-8.7-5.8l-10.6,12.5l-4.2-6.1l0-0.1c-5.7,21.2-15.1,39.5-25.4,54.7c-4.9-11.2-7.7-23.4-7.9-36C133.9,147.9,145.2,127,166.1,112.3z
		 M250.6,232.6c4.1,1.9,14.7,5,34.5,10.9c-2.5,2.1-5.2,4.1-7.8,5.9c-18.9,13.3-42.7,17.8-65.3,14.6c-23.4-3.2-43.5-15.9-57.4-33.6
		c5.7-2.8,11.7-5.7,18.2-8.8c5.6-2.7,11.3-4.7,16.8-6.2c-9.8,17.6-16.8,25.2-16.8,25.2C168.8,248.6,200.7,209.7,250.6,232.6z
		 M217.4,309.1c-56.5,0-87.4-28.4-104.3-58c7.1-3.6,16.2-8.2,27.1-13.6c5.5,8.8,12.6,16.9,21.3,23.7c36.6,29,89.9,23.3,122.2-9
		c2.3-2.3,4.5-4.7,6.6-7.2c8.5,2.5,18.4,5.4,30,8.9C304.3,278.8,273.5,309.1,217.4,309.1z M401.8,262.3
		c-7.4,7.4-16.4,11.2-26.9,11.2c-10.5,0-19.5-3.7-26.9-11.2c0,0-0.1-0.1-0.1-0.1c10.2,3.1,21.3,6.5,33.5,10.3
		c-16.5-9.5-31-19.5-43.9-29.8c-0.4-2.4-0.7-4.8-0.7-7.3c0-10.5,3.7-19.5,11.1-26.9c7.4-7.4,16.4-11.1,26.9-11.1
		c10.5,0,19.5,3.7,26.9,11.1c7.4,7.4,11.1,16.4,11.1,26.9C412.9,245.9,409.2,254.9,401.8,262.3z"/>
	<polygon points="447.2,202.8 442.3,202.8 442.3,225.6 431.4,225.6 431.4,230.5 442.3,230.5 442.3,279.1 447.2,279.1 447.2,230.5 
		458.1,230.5 458.1,225.6 447.2,225.6 	"/>
	<rect x="472.2" y="225.6" width="4.9" height="53.5"/>
	<path d="M474.7,206.6c-1.4,0-2.5,0.5-3.5,1.4c-1,1-1.4,2.1-1.4,3.4c0,1.4,0.5,2.6,1.4,3.5c1,1,2.1,1.4,3.5,1.4
		c1.4,0,2.5-0.5,3.5-1.4c1-1,1.4-2.1,1.4-3.5c0-1.4-0.5-2.5-1.4-3.4C477.2,207.1,476,206.6,474.7,206.6z"/>
	<path d="M545.6,268.1l-5.2-1.9c-0.5,0.7-1.1,1.3-1.7,1.9c-4.9,4.9-10.7,7.2-17.5,7.2c-6.8,0-12.6-2.4-17.4-7.2
		c-4.9-4.9-7.2-10.7-7.2-17.5c0-6.8,2.4-12.7,7.2-17.5c4.9-4.8,10.7-7.2,17.4-7.2c6.8,0,12.7,2.4,17.5,7.2c0.6,0.7,1.2,1.3,1.7,2
		l5.2-1.9c-1-1.3-2-2.5-3.2-3.7c-5.9-5.9-12.9-8.8-21.2-8.8c-8.3,0-15.3,2.9-21.1,8.8c-5.9,5.9-8.8,12.9-8.8,21.1
		c0,8.3,2.9,15.4,8.8,21.2c5.9,5.9,12.9,8.8,21.1,8.8c8.3,0,15.4-2.9,21.2-8.8C543.6,270.6,544.7,269.4,545.6,268.1z"/>
	<path d="M578.6,258.8c1.4-1.8,4.7-4.7,10.1-8.6c7.5-5.5,12.6-9.8,15.3-13.2c2.7-3.3,4-7.3,4-12c0-5.9-2.4-10.7-7.2-14.4
		c-4.8-3.7-11.2-5.6-19.1-5.6c-6.1,0-13,1.4-20.6,4.1v16c6-3.9,11.3-5.8,15.9-5.8c3.1,0,5.7,0.7,7.6,2.2c1.9,1.5,2.9,3.3,2.9,5.4
		c0,1.6-0.6,3.2-1.8,4.7c-1.3,1.5-3.9,3.8-8,6.8c-8.7,6.3-14.2,11.4-16.7,15.3c-2.5,3.9-3.8,9.4-3.8,16.4v8.7h52.3v-13.8h-33.1
		C576.5,262.8,577.3,260.6,578.6,258.8z"/>
	<path d="M674.6,257.6c0-4.9-1.5-8.8-4.6-11.7c-3.1-2.9-7.6-4.8-13.7-5.7c4.8-1.9,8.3-4.3,10.7-7.1c2.4-2.8,3.5-6.1,3.5-9.8
		c0-3.8-1.3-7.1-3.7-10c-2.5-2.8-5.7-4.9-9.6-6.2c-3.9-1.3-8-2-12.3-2c-7,0-13.6,1.4-20.1,4.3V225c5.8-3.8,10.9-5.6,15.2-5.6
		c2.9,0,5.4,0.7,7.3,2.2c1.9,1.4,2.9,3.3,2.9,5.5c0,2.4-1.1,4.3-3.3,5.6c-2.2,1.3-5,2-8.3,2H633v12.6h8.8c3.6,0,6.6,0.8,9,2.5
		c2.3,1.7,3.5,3.8,3.5,6.4c0,2.7-1.2,5-3.6,7c-2.4,1.9-5.3,2.9-8.7,2.9c-5.6,0-11.3-1.8-17-5.4v16c7,2.6,13.7,3.9,19.9,3.9
		c8.8,0,16-2.2,21.5-6.4C671.8,269.6,674.6,264.1,674.6,257.6z"/>
	<path d="M735.9,270.4c5.5-6.6,8.1-15.5,8.1-26.6c0-12.7-2.7-22.3-8.2-28.9c-5.5-6.6-12.7-9.8-21.8-9.8c-8.7,0-15.8,3.4-21.3,10.1
		c-5.5,6.8-8.3,15.7-8.3,26.9c0,6.7,1,13,3,18.8c2,5.9,5.4,10.5,10.2,14.1c4.8,3.5,10.4,5.3,16.9,5.3
		C723.3,280.3,730.5,277,735.9,270.4z M706.9,260.6c-1.6-4.1-2.4-10.3-2.4-18.6c0-7.8,0.8-13.7,2.5-17.6c1.7-3.9,4.1-5.9,7.4-5.9
		c3.2,0,5.5,2,7.1,6.1c1.6,4,2.3,10.1,2.3,18.2c0,8-0.8,14-2.4,18c-1.6,4-4,6-7.2,6C711,266.8,708.5,264.7,706.9,260.6z"/>
	<path d="M801.3,270.4c5.5-6.6,8.1-15.5,8.1-26.6c0-12.7-2.7-22.3-8.2-28.9c-5.5-6.6-12.7-9.8-21.8-9.8c-8.7,0-15.8,3.4-21.3,10.1
		c-5.5,6.8-8.3,15.7-8.3,26.9c0,6.7,1,13,3,18.8c2,5.9,5.4,10.5,10.2,14.1c4.8,3.5,10.4,5.3,16.9,5.3
		C788.8,280.3,795.9,277,801.3,270.4z M786.9,260.8c-1.6,4-4,6-7.2,6c-3.3,0-5.7-2.1-7.3-6.2c-1.6-4.1-2.4-10.3-2.4-18.6
		c0-7.8,0.8-13.7,2.5-17.6c1.7-3.9,4.1-5.9,7.4-5.9c3.2,0,5.5,2,7.1,6.1c1.6,4,2.3,10.1,2.3,18.2
		C789.3,250.8,788.5,256.8,786.9,260.8z"/>
	<path d="M221.8,59c119.8,0,126.8,125.6,126.8,125.6h52.9c0-24.8-39.2-151.6-155.8-151.6C124.9,33.1,102,147.9,102,147.9
		S124.9,59,221.8,59z"/>
	<path d="M172.7,138.9l6.8-13.5l8.7,9.6l0.6-0.5l0,0c-4-7.9-6.5-13.5-7-14.8c-2-5-9-11-9,4c-0.3,4.9-0.9,9.7-1.7,14.3l0.1-0.6
		L172.7,138.9z"/>
	<path d="M542.9,301c0,1.6-1,5.7-3,12.1c-2,6.5-3,10.1-3,11h-0.4c0-0.9-1-4.7-3-11.4c-2-6.7-3-10.6-3-11.7h-7.2
		c0,1.1,1.6,6,4.8,14.7c3.2,8.7,4.8,13.6,4.8,14.8h6.2c0-1.2,1.7-6.1,5.2-14.7c3.4-8.6,5.2-13.5,5.2-14.7H542.9z"/>
	<path d="M568,301h-8.5c0,0.9-1.8,5.9-5.3,15c-3.5,9.1-5.3,13.9-5.3,14.5h6.8c0-1.1,0.7-3.9,2.1-8.5h10.4c1.4,4.6,2.1,7.5,2.1,8.5
		h7.2c0-0.8-1.6-5.7-4.8-14.7C569.6,306.8,568,301.9,568,301z M558.9,317.7c2.7-7.8,4-12,4-12.6h0.4c0,0.6,1.3,4.8,3.9,12.6H558.9z"
		/>
	<path d="M587.1,315c0-5.9,0.1-10.6,0.3-14h-6.4c0.2,3.7,0.3,8.4,0.3,14c0,6.2-0.1,11.3-0.3,15.4h18.8l0.2-4.9
		c-4.6,0.2-9,0.3-13.2,0.3C587,323.2,587.1,319.6,587.1,315z"/>
	<path d="M610.8,305.9c3.7-0.2,6.6-0.4,8.7-0.4c0.1,2.9,0.1,6.1,0.1,9.5c0,5.5-0.1,10.6-0.3,15.4h6.3c-0.2-4.8-0.2-10-0.2-15.4
		c0-3.5,0-6.7,0-9.5c2.7,0,5.5,0.1,8.5,0.3l0.2-4.9H611L610.8,305.9z"/>
	<path d="M655.3,301c0.2,4.7,0.3,8.6,0.3,11.8h-11.5c0-3.6,0.1-7.5,0.3-11.8h-6.4c0.2,4,0.3,8.7,0.3,14c0,5.3-0.1,10.4-0.3,15.4h6.4
		c-0.2-5.4-0.2-9.7-0.2-13h11.4c0,3.7-0.1,8-0.2,13h6.4c-0.2-4.5-0.3-9.6-0.3-15.4c0-5.5,0.1-10.2,0.3-14H655.3z"/>
	<path d="M681.4,300.3c-4.2,0-7.7,1.5-10.5,4.6c-2.8,3-4.3,6.9-4.3,11.5c0,4.3,1.3,7.9,4,10.7c2.7,2.8,6,4.2,10,4.2
		c4.2,0,7.7-1.5,10.5-4.6c2.8-3,4.3-6.9,4.3-11.5c0-4.3-1.3-7.9-4-10.7C688.7,301.7,685.4,300.3,681.4,300.3z M686.9,323.3
		c-1.5,2-3.4,3-5.6,3c-2.4,0-4.3-1-6-3c-1.6-2-2.4-4.5-2.4-7.7c0-3,0.8-5.5,2.3-7.5c1.5-2,3.4-3,5.6-3c2.4,0,4.4,1,6,2.9
		c1.6,2,2.4,4.5,2.4,7.7C689.2,318.8,688.4,321.3,686.9,323.3z"/>
	<path d="M715.6,316.1v-0.3c3.9-1.5,5.9-4.1,5.9-7.8c0-4.7-3.5-7.1-10.4-7.1c-1.2,0-2.6,0-4,0.1c-1.4,0-2.4,0.1-2.8,0.1h-3.9
		c0.2,3.9,0.3,8.6,0.3,14c0,5.7-0.1,10.8-0.3,15.4h6.3c-0.1-3.9-0.2-7.9-0.2-11.7c0.8,0,1.6,0,2.5,0c2.1,0,3.6,0.6,4.5,1.9
		c0.9,1.3,2.3,4.5,4,9.9h6.7c-1.9-5.2-3.5-8.8-4.6-10.7C718.5,317.8,717.2,316.6,715.6,316.1z M708.6,314.6c-0.6,0-1.3,0-2.1,0
		c0-3.8-0.1-6.8-0.2-9.1c1.1-0.2,2.3-0.3,3.8-0.3c3.9,0,5.8,1.5,5.8,4.5C715.8,313,713.4,314.6,708.6,314.6z"/>
	<path d="M734.1,317.3c3.2,0,6.6,0.1,10.1,0.2v-4.7c-3.6,0.2-7,0.2-10.1,0.2c0-2.8-0.1-5.3-0.2-7.4c3.7,0,7.8,0.1,12.3,0.4l0.2-5
		H728c0.2,3.9,0.3,8.6,0.3,14c0,5.7-0.1,10.8-0.3,15.4h19.2l0.2-5c-4.7,0.3-9.1,0.4-13.2,0.4C734.1,323.2,734.1,320.3,734.1,317.3z"
		/>
	<path d="M771.1,301c0.2,4.3,0.3,8.5,0.3,12.6c0,2.7,0.2,5.7,0.5,9h-0.3c-0.6-2.1-2.9-6.1-6.8-12.1c-3.7-5.6-5.6-8.8-5.6-9.6h-6.7
		c0.2,3.9,0.3,8.5,0.3,14c0,5.6-0.1,10.7-0.3,15.4h5.6c-0.2-5.4-0.3-9.9-0.3-13.6c0-2.7-0.2-5.7-0.6-9h0.4c0.6,2.3,3.1,6.6,7.4,12.8
		c4.1,5.9,6.2,9.2,6.2,9.8h5.6c-0.2-4.6-0.3-9.7-0.3-15.4c0-5.6,0.1-10.3,0.3-14H771.1z"/>
	<path d="M794.1,312.8c-2.4-1-4-1.7-4.7-2.3c-0.8-0.6-1.2-1.5-1.2-2.5c0-1.9,1.8-2.8,5.3-2.8c2.4,0,4.6,0.4,6.6,1.1l0.8-5
		c-2-0.5-4.5-0.7-7.4-0.7c-3.6,0-6.4,0.7-8.3,2.2c-1.9,1.5-2.9,3.5-2.9,6.1c0,2.2,0.7,4.1,2.2,5.6c1.2,1.2,2.9,2.3,5.3,3.3
		c2.6,1.1,4.4,2,5.2,2.7c1,0.8,1.5,1.7,1.5,2.9c0,1.1-0.5,1.9-1.6,2.4c-1.1,0.5-2.8,0.7-5.2,0.7c-2.2,0-4.5-0.4-6.9-1.3l-1.1,5
		c2.5,0.7,5.1,1,8,1c8.5,0,12.7-2.9,12.7-8.8c0-2.5-0.9-4.5-2.6-6.2C798.6,315,796.7,313.8,794.1,312.8z"/>
</g>
</svg>
